<svg xmlns="http://www.w3.org/2000/svg" viewBox="0 0 100 100"><defs><style>.cls-1{fill:#e082a8}</style></defs><g id="ELEMENTS"><path class="cls-1" d="M70 27.25a4.42 4.42 0 1 0 4.42 4.42A4.41 4.41 0 0 0 70 27.25Zm-19.69 5.67a18.56 18.56 0 1 0 18.56 18.56 18.58 18.58 0 0 0-18.56-18.56Zm0 30.45A11.89 11.89 0 1 1 62.2 51.48a11.9 11.9 0 0 1-11.89 11.89Z"/><path class="cls-1" d="M65.05 89.17H35a22.67 22.67 0 0 1-22.69-22.64v-30.1A22.67 22.67 0 0 1 35 13.79h30.1a22.67 22.67 0 0 1 22.59 22.64v30.1a22.67 22.67 0 0 1-22.64 22.64ZM35 20.89a15.56 15.56 0 0 0-15.6 15.54v30.1A15.57 15.57 0 0 0 35 82.08h30.1a15.57 15.57 0 0 0 15.5-15.55v-30.1a15.56 15.56 0 0 0-15.55-15.54Z"/></g></svg>